<?xml version="1.0" encoding="utf-8"?>
<!-- Generator: Adobe Illustrator 27.6.1, SVG Export Plug-In . SVG Version: 6.00 Build 0)  -->
<svg version="1.1" id="Layer_1" xmlns="http://www.w3.org/2000/svg" xmlns:xlink="http://www.w3.org/1999/xlink" x="0px" y="0px"
	 viewBox="0 0 800 433.3" style="enable-background:new 0 0 800 433.3;" xml:space="preserve">
<style type="text/css">
	.st0{fill:#8892BF;}
</style>
<path class="st0" d="M400,0C175.7,0,0,95.2,0,216.7c0,121.5,175.7,216.7,400,216.7c224.3,0,400-95.2,400-216.7
	C800,95.2,624.3,0,400,0z M358.5,66.7h43.7l-13.9,66.7h39c24.7,0,41.3,3.5,50.8,12.1c9.2,8.5,12,22.5,8.3,41.6l-17.3,79.6h-44.4
	l16-73.6c2-10.1,1.2-17.1-2.2-20.8c-3.4-3.7-10.8-5.5-21.9-5.5h-35l-21.1,100h-43.8L358.5,66.7z M166.7,133.3h88.9
	c42.4,0,68,28.4,58,70.8c-11.7,49.2-42.9,62.6-100.3,62.6h-27.5l-8.7,50h-44.1L166.7,133.3z M516.7,133.3h88.9
	c42.4,0,68,28.4,58,70.8c-11.7,49.2-42.9,62.6-100.3,62.6h-27.5l-8.7,50h-44.1L516.7,133.3z M204.5,166.7l-12.6,66.7h28.5
	c24.7,0,47.6-2.8,51.4-39.6c1.4-14.3-4.5-27.1-33-27.1H204.5z M554.5,166.7l-12.6,66.7h28.5c24.7,0,47.6-2.8,51.4-39.6
	c1.4-14.3-4.5-27.1-33-27.1H554.5z"/>
</svg>
