<?xml version="1.0" encoding="utf-8"?>
<!-- Generator: Adobe Illustrator 27.6.1, SVG Export Plug-In . SVG Version: 6.00 Build 0)  -->
<svg version="1.1" id="Layer_1" xmlns="http://www.w3.org/2000/svg" xmlns:xlink="http://www.w3.org/1999/xlink" x="0px" y="0px"
	 viewBox="0 0 800 482" style="enable-background:new 0 0 800 482;" xml:space="preserve">
<style type="text/css">
	.st0{fill:#F62B54;}
	.st1{fill:#FFCC00;}
	.st2{fill:#00CA72;}
</style>
<g>
	<path class="st0" d="M99.5,479.7c-36,0.1-69.3-19.2-87.1-50.5C-5.1,398-4,359.8,15.2,329.7L194.5,48.1C213.2,17.3,247-1,283,0
		c36,0.9,68.7,21,85.7,52.8c16.7,31.6,14.6,69.6-5.4,99.3L184.1,433.7C165.6,462.5,133.7,479.8,99.5,479.7L99.5,479.7z"/>
	<path class="st1" d="M407,479.7c-36.2,0-69.4-19.3-86.9-50.4c-17.5-31-16.4-69.2,2.7-99.2L501.8,49.2C520.2,17.9,554.1-0.9,590.4,0
		c36.5,0.8,69.5,21.2,86.2,53.1c16.6,31.9,14.2,70.2-6.5,99.8L491.3,433.8C472.9,462.5,441.1,479.7,407,479.7z"/>
	<ellipse class="st2" cx="707.7" cy="391.6" rx="92.3" ry="90.4"/>
</g>
</svg>
