<?xml version="1.0" encoding="utf-8"?>
<!-- Generator: Adobe Illustrator 27.6.1, SVG Export Plug-In . SVG Version: 6.00 Build 0)  -->
<svg version="1.1" xmlns="http://www.w3.org/2000/svg" xmlns:xlink="http://www.w3.org/1999/xlink" x="0px" y="0px"
	 viewBox="0 0 64.6 64.6" style="enable-background:new 0 0 64.6 64.6;" xml:space="preserve">
<style type="text/css">
	.st0{fill:#00E4BC;}
	.st1{fill:#FFFFFF;}
</style>
<g id="Layer_2">
	<path class="st0" d="M32.3,64.6L32.3,64.6C14.5,64.6,0,50.2,0,32.3v0C0,14.5,14.5,0,32.3,0h0c17.8,0,32.3,14.5,32.3,32.3v0
		C64.6,50.2,50.2,64.6,32.3,64.6z"/>
</g>
<g id="Layer_6">
	<path class="st1" d="M20.8,39.7h-8.3l-1.4,3.5H4.8l9.7-23.9h4.2l10.1,23.9h-6.7L20.8,39.7z M14.9,33.8l-0.2,0.5h4l-0.1-0.4
		l-1.9-5.1L14.9,33.8L14.9,33.8z"/>
</g>
<g id="Layer_5">
	<path class="st1" d="M40.1,33.1c-1,3.4-4.6,5.4-8.2,4.6c-3.5-0.9-5.8-4.3-5-7.8c0.7-3.5,4.2-5.8,7.8-5.2c1.5,0.2,2.8,0.9,3.8,2
		c0.7,0.7,1.2,1.6,1.5,2.5h5.7c-0.7-6-6-10-12.2-10c-3.3,0-6.4,1.2-8.8,3.5c-1.1,1.1-2,2.4-2.7,3.9c-0.6,1.5-0.9,3-0.9,4.6
		c0,6.8,5.5,11.9,12.3,11.9c6.2,0,11.3-4,12.2-10.1H40.1L40.1,33.1z"/>
</g>
<g id="Layer_7">
	<path class="st1" d="M48.8,43.2h-5.9V19.3h15.9v5.6h-9.9v4.3h9.3v5.4h-9.3V43.2L48.8,43.2z"/>
</g>
</svg>
