<?xml version="1.0" encoding="utf-8"?>
<!-- Generator: Adobe Illustrator 27.6.1, SVG Export Plug-In . SVG Version: 6.00 Build 0)  -->
<svg version="1.1" id="Layer_2" xmlns="http://www.w3.org/2000/svg" xmlns:xlink="http://www.w3.org/1999/xlink" x="0px" y="0px"
	 viewBox="0 0 83.4 87.2" style="enable-background:new 0 0 83.4 87.2;" xml:space="preserve">
<style type="text/css">
	.st0{fill:#88CE02;}
	.st1{opacity:0.3;enable-background:new    ;}
</style>
<g>
	<path d="M51.4,61.5c12.4,9,22,10.6,28.3,13.9c6.3,3.3,4.7,9.6-5.9,11.4c-8.6,1.6-22-1.6-31-1.6s-28.9,1-34.2-2.6
		c-6.1-4.3-3.5-12.2-3.5-12.2c1.6-4.5,5.7-14.5,4.5-22.6S6.8,35.1,3.8,27.5C0.7,20-1.5,1.4,1.3,0.4s2,0,5.7,0.8
		c3.7,0.8,7.7,2,15.7,2s16.7-1.2,19.8-1.8c3.1-0.6,5.5-1.2,4.5,5.1c-1,6.3-4.1,18.1-4.3,27.3c-0.2,9.2-0.2,19.8,0.4,21.6
		C43.7,57.3,48.2,59.3,51.4,61.5z"/>
	<g>
		<path d="M5.8,0.8c0,0,10.8,4.7,37.5,0.6c0,0-7.5,37.9-4.1,56.8c0,0,3.5,4.9,29.1,14.3c0,0,11.4,2.9,11,8.6c0,0,0.4,1.2-13.4,0.8
			S39,79,29.8,79s-18.9,0.4-20.6-2.2c-1.8-2.4,0.4-8.8,3.1-12.4c2.9-3.9,2-6.7,1.8-13.6C13.5,32.6-0.3,13.9,5.8,0.8z"/>
		<path class="st0" d="M3.6,4.3c-1.4,2,0.2,9.8,2.2,17.3c2,7.5,6.5,12,7.5,24.4c1,12.2,1.2,13.9-2.2,21s-4.5,13.6,7.5,13.9
			s18.5-0.2,30.8,1.6c12.2,1.8,16.5,2.4,23.2,1.4s8.1-3.3,5.3-5.3c-2.9-2-14.7-4.3-19.8-8.4c-4.9-3.7-18.7-9.8-18.9-11.4
			c-0.6-5.5-0.8-25.5,0.2-32c1-6.5,2.4-15.9,2.9-18.3s2.4-4.9-1-4.1c-3.5,0.8-16.5,2.6-26.3,2C5.2,5.9,4.2,3.7,3.6,4.3z"/>
		<path class="st1" d="M10.5,67.2c3.5,1.6,8.6,2.9,12.4,2.9c0,0-1.4,6.7,0.8,10.8C26,85,7.4,82.5,7.4,82.5L6.6,68.1L10.5,67.2z"/>
		<path class="st1" d="M64.5,84.8c3.3-1,5.5-4.7,2.9-8.1c-2.9-3.5-5.3-4.1-1.6-4.3c3.7-0.2,17.1,7.9,17.1,7.9l-6.9,6.3L64.5,84.8z"
			/>
		<path class="st1" d="M2.9,12.2c4.7,1.6,11.8,2,17.9,1.8c6.1-0.2,15.3-1,21.2-3.1c5.9-2,3.5,2.2,3.5,2.2l-3.3,3.1
			c0,0-7.7,3.1-20.4,2.9C7,19,2.5,17.3,2.5,17.3L2.9,12.2z"/>
		<path class="st1" d="M3.3,22.4c4.7,1.6,11.8,2,17.9,1.8c6.1-0.2,14.3-0.2,20.2-2.4c2.4-0.8,1,2.6,1,2.6l-1,1.8
			c0,0-7.9,2.9-20.4,2.6C6.2,28.7,3.6,27.5,3.6,27.5L3.3,22.4z"/>
	</g>
</g>
</svg>
