<?xml version="1.0" encoding="utf-8"?>
<!-- Generator: Adobe Illustrator 27.6.1, SVG Export Plug-In . SVG Version: 6.00 Build 0)  -->
<svg version="1.1" id="Layer_1" xmlns="http://www.w3.org/2000/svg" xmlns:xlink="http://www.w3.org/1999/xlink" x="0px" y="0px"
	 viewBox="0 0 800 711.8" style="enable-background:new 0 0 800 711.8;" xml:space="preserve">
<style type="text/css">
	.st0{fill:#00D8FF;}
</style>
<g>
	<path class="st0" d="M657.8,230.7c-8.3-2.9-16.9-5.6-25.8-8.1c1.5-5.9,2.8-11.8,4-17.6c19.5-94.6,6.7-170.9-36.8-196
		c-41.7-24.1-110,1-178.9,61c-6.6,5.8-13.3,11.9-19.9,18.3c-4.4-4.2-8.8-8.3-13.3-12.2C314.9,12,242.5-15.1,199,10.1
		c-41.7,24.1-54,95.8-36.5,185.5c1.7,8.7,3.7,17.5,5.9,26.5c-10.2,2.9-20.1,6-29.6,9.3C54.1,260.9,0,307.2,0,355.2
		c0,49.6,58.1,99.3,146.3,129.5c7,2.4,14.2,4.6,21.6,6.8c-2.4,9.7-4.5,19.3-6.3,28.6c-16.7,88.1-3.7,158.1,37.9,182.1
		c43,24.8,115-0.7,185.2-62c5.5-4.9,11.1-10,16.7-15.4c7.2,7,14.4,13.6,21.6,19.7c68,58.5,135.1,82.1,176.7,58.1
		c42.9-24.8,56.9-100,38.7-191.5c-1.4-7-3-14.1-4.8-21.4c5.1-1.5,10-3,14.9-4.6C740.3,454.6,800,405.5,800,355.2
		C800,307,744.2,260.4,657.8,230.7L657.8,230.7z M637.9,452.5c-4.4,1.4-8.9,2.8-13.4,4.2c-10.1-32.1-23.8-66.1-40.5-101.3
		c16-34.4,29.1-68,38.9-99.9c8.2,2.4,16.1,4.9,23.8,7.5c74,25.5,119.2,63.2,119.2,92.2C765.8,386.1,717.1,426.3,637.9,452.5
		L637.9,452.5z M605,517.6c8,40.4,9.1,77,3.8,105.6c-4.8,25.7-14.3,42.8-26.2,49.7c-25.2,14.6-79.1-4.4-137.3-54.4
		c-6.7-5.7-13.4-11.9-20.1-18.3c22.5-24.7,45.1-53.3,67.1-85.1c38.7-3.4,75.2-9,108.3-16.7C602.3,504.9,603.8,511.3,605,517.6
		L605,517.6z M272.7,670.4c-24.6,8.7-44.3,8.9-56.1,2.1c-25.2-14.6-35.7-70.7-21.4-146.1c1.6-8.6,3.6-17.5,5.8-26.6
		c32.8,7.2,69,12.5,107.8,15.6c22.1,31.1,45.3,59.8,68.7,84.8c-5.1,4.9-10.2,9.6-15.2,14C331.3,641.4,300.1,660.7,272.7,670.4
		L272.7,670.4z M157.3,452.3c-39-13.3-71.2-30.7-93.3-49.6c-19.8-17-29.9-33.9-29.9-47.6c0-29.1,43.4-66.3,115.9-91.5
		c8.8-3.1,18-6,27.5-8.7c10,32.6,23.1,66.6,39,101c-16.1,34.9-29.4,69.5-39.5,102.5C170.3,456.6,163.7,454.5,157.3,452.3
		L157.3,452.3z M196,189c-15-76.8-5-134.8,20.1-149.3c26.8-15.5,85.9,6.6,148.3,62c4,3.5,8,7.2,12,11.1
		c-23.2,25-46.2,53.4-68.2,84.3c-37.6,3.5-73.6,9.1-106.8,16.6C199.4,205.3,197.6,197.1,196,189L196,189z M541.1,274.2
		c-7.9-13.7-16-27-24.3-40c25.5,3.2,50,7.5,72.9,12.8c-6.9,22.1-15.5,45.2-25.6,68.9C556.9,302.1,549.2,288.2,541.1,274.2
		L541.1,274.2z M400.4,137.2c15.8,17.1,31.5,36.1,47.1,56.8c-15.6-0.7-31.5-1.1-47.5-1.1c-15.8,0-31.5,0.4-47.1,1.1
		C368.4,173.5,384.4,154.4,400.4,137.2L400.4,137.2z M258.8,274.5c-7.9,13.7-15.4,27.5-22.6,41.4c-10-23.6-18.5-46.8-25.4-69.2
		c22.8-5.1,47.2-9.3,72.5-12.4C274.9,247.3,266.7,260.7,258.8,274.5L258.8,274.5L258.8,274.5z M284,478.7
		c-26.2-2.9-50.9-6.9-73.7-11.9c7.1-22.8,15.8-46.5,25.9-70.6c7.2,13.8,14.7,27.7,22.7,41.4h0C267,451.6,275.4,465.3,284,478.7
		L284,478.7z M401.3,575.7c-16.2-17.5-32.4-36.8-48.1-57.6c15.3,0.6,30.9,0.9,46.8,0.9c16.3,0,32.4-0.4,48.3-1.1
		C432.7,539.1,417,558.4,401.3,575.7L401.3,575.7z M564.4,395c10.7,24.4,19.7,48,26.9,70.4c-23.2,5.3-48.2,9.6-74.6,12.7
		c8.3-13.2,16.5-26.7,24.6-40.7C549.4,423.2,557.1,409.1,564.4,395L564.4,395z M511.6,420.3c-12.5,21.7-25.3,42.4-38.4,61.9
		c-23.7,1.7-48.3,2.6-73.3,2.6c-24.9,0-49.1-0.8-72.4-2.3c-13.6-19.8-26.7-40.6-39.1-62h0c-12.4-21.4-23.8-43-34.1-64.5
		c10.3-21.5,21.7-43.1,34-64.5l0,0c12.4-21.4,25.4-42.1,38.8-61.8c23.8-1.8,48.2-2.7,72.8-2.7h0c24.8,0,49.2,0.9,73,2.8
		c13.2,19.5,26.1,40.1,38.5,61.5c12.5,21.7,24.1,43.1,34.5,64.2C535.6,377,524.1,398.6,511.6,420.3L511.6,420.3z M582.1,38.7
		c26.8,15.4,37.2,77.8,20.4,159.5c-1.1,5.2-2.3,10.5-3.6,15.9c-33.2-7.7-69.2-13.4-107-16.9c-22-31.3-44.8-59.8-67.6-84.4
		c6.1-5.9,12.3-11.6,18.4-16.9C501.8,44.5,557,24.2,582.1,38.7L582.1,38.7z M400,283.8c39.5,0,71.4,32,71.4,71.4
		c0,39.5-32,71.4-71.4,71.4s-71.4-32-71.4-71.4C328.6,315.8,360.5,283.8,400,283.8L400,283.8z"/>
</g>
</svg>
